<?xml version="1.0" standalone="no"?>
<!DOCTYPE svg PUBLIC "-//W3C//DTD SVG 20010904//EN"
 "http://www.w3.org/TR/2001/REC-SVG-20010904/DTD/svg10.dtd">
<svg version="1.0" xmlns="http://www.w3.org/2000/svg"
 width="162.000000pt" height="162.000000pt" viewBox="0 0 162.000000 162.000000"
 preserveAspectRatio="xMidYMid meet">
<metadata>
Created by potrace 1.14, written by Peter Selinger 2001-2017
</metadata>
<g transform="translate(0.000000,162.000000) scale(0.100000,-0.100000)"
fill="#000000" stroke="none">
<path d="M330 1123 c-40 -103 -126 -326 -191 -495 -66 -168 -119 -309 -119
-313 0 -3 44 -4 97 -3 l98 3 28 80 c16 44 58 163 93 265 36 101 68 188 72 192
4 4 26 -45 49 -110 59 -167 140 -394 148 -414 6 -15 21 -18 101 -18 52 0 94 4
94 9 0 19 -372 967 -384 979 -11 11 -26 -21 -86 -175z"/>
<path d="M846 1301 c-2 -3 -3 -94 -3 -201 l0 -195 93 -1 c89 -1 94 0 95 20 0
12 1 60 1 109 0 97 -5 91 78 88 121 -4 216 -60 265 -156 28 -54 30 -67 29
-159 0 -80 -4 -111 -21 -147 -45 -100 -146 -159 -278 -162 l-70 -2 -1 45 c-1
25 -2 73 -3 108 l-1 62 -94 0 -94 0 2 -197 1 -198 145 0 c162 0 216 7 304 36
202 68 306 223 306 456 -1 231 -92 379 -278 452 -26 11 -64 22 -82 25 -19 3
-46 8 -60 11 -35 8 -330 14 -334 6z"/>
</g>
</svg>
